<?xml version="1.0" standalone="no"?>
<!DOCTYPE svg PUBLIC "-//W3C//DTD SVG 20010904//EN"
 "http://www.w3.org/TR/2001/REC-SVG-20010904/DTD/svg10.dtd">
<svg version="1.0" xmlns="http://www.w3.org/2000/svg"
 width="630.000000pt" height="424.000000pt" viewBox="0 0 630.000000 424.000000"
 preserveAspectRatio="xMidYMid meet">

<g transform="translate(0.000000,424.000000) scale(0.100000,-0.100000)"
fill="#000000" stroke="none">
<path d="M3129 4166 c-28 -14 -1 2 -659 -381 -864 -502 -1271 -741 -1875
-1100 -505 -301 -517 -308 -525 -330 -4 -11 -5 -122 -2 -246 l5 -227 271 -158
c149 -87 368 -215 486 -284 118 -70 429 -252 690 -405 261 -153 556 -327 655
-385 790 -466 954 -560 970 -560 19 0 71 29 370 205 825 487 1510 890 1655
973 80 46 444 261 968 570 l112 67 0 242 0 242 -247 147 c-137 81 -268 159
-293 174 -278 170 -2366 1372 -2516 1448 -35 18 -44 19 -65 8z m149 -112 c333
-189 1598 -914 1737 -996 88 -52 381 -224 650 -382 270 -159 494 -292 498
-296 8 -7 -60 -48 -658 -400 -137 -81 -488 -288 -780 -460 -291 -172 -674
-397 -850 -500 -307 -180 -428 -251 -634 -373 -84 -49 -97 -54 -115 -42 -33
20 -489 288 -1031 605 -534 313 -673 394 -995 583 -113 67 -259 152 -325 190
-66 38 -183 106 -260 152 -77 45 -188 110 -248 145 -59 34 -109 65 -111 69 -5
7 165 112 494 307 113 66 414 244 670 396 256 151 524 309 595 350 502 291
1083 629 1150 669 44 27 83 49 88 49 4 0 60 -30 125 -66z m2922 -1923 l0 -199
-67 -38 c-38 -21 -162 -94 -278 -162 -115 -69 -300 -178 -410 -242 -309 -180
-1099 -644 -1410 -828 -154 -91 -332 -196 -395 -232 -63 -37 -193 -112 -288
-168 -96 -56 -175 -102 -178 -102 -2 0 -4 87 -4 193 l0 192 238 140 c130 77
296 174 367 215 345 203 1651 973 2095 1236 179 106 326 193 328 193 1 1 2
-89 2 -198z m-5827 27 c133 -78 278 -163 322 -188 87 -51 808 -473 1075 -630
91 -53 311 -183 490 -287 338 -198 503 -295 727 -427 l133 -78 0 -194 c0 -107
-3 -194 -6 -194 -3 0 -119 67 -257 149 -340 200 -785 463 -992 584 -93 55
-309 182 -480 282 -170 100 -398 233 -505 295 -673 392 -765 448 -764 469 0
12 1 98 2 191 1 94 5 170 8 170 3 0 114 -64 247 -142z"/>
<path d="M3016 3750 c-75 -43 -143 -77 -151 -74 -7 3 -19 -3 -27 -14 -15 -23
-82 -64 -521 -321 -508 -298 -1061 -621 -1322 -773 -313 -183 -317 -186 -313
-206 3 -17 141 -100 863 -522 291 -170 518 -303 1190 -697 127 -74 267 -157
311 -184 45 -27 89 -49 99 -49 10 0 77 35 149 79 72 43 235 139 361 213 127
74 334 196 460 270 127 74 313 184 415 243 102 59 358 210 570 335 212 125
418 246 458 269 48 28 72 48 72 60 0 18 -152 112 -635 391 -88 51 -261 152
-385 225 -264 156 -436 255 -810 470 -151 87 -292 168 -312 181 -21 13 -75 44
-120 68 -46 24 -112 59 -148 79 l-66 37 -138 -80z m118 -61 c11 -113 11 -115
-40 -143 l-46 -26 -63 58 -63 57 77 44 c42 24 85 49 96 57 11 7 23 13 26 13 3
1 9 -27 13 -60z m153 9 l96 -51 -29 -21 c-16 -11 -48 -38 -71 -59 -41 -38 -42
-38 -67 -22 -24 16 -26 23 -26 89 0 39 -3 81 -6 94 -4 12 -3 22 0 22 4 0 50
-23 103 -52z m158 -152 l19 -55 -40 -43 c-57 -62 -133 -177 -190 -288 l-49
-95 -3 72 c-3 85 25 221 63 299 17 34 48 70 96 112 40 34 75 59 79 57 3 -2 15
-29 25 -59z m-492 -7 c41 -37 78 -82 93 -112 49 -96 100 -356 92 -471 l-3 -49
-58 149 c-67 173 -140 310 -202 381 -43 49 -44 51 -33 89 12 46 26 74 36 74 4
0 38 -28 75 -61z m939 -185 c216 -125 501 -291 633 -368 132 -78 417 -245 633
-371 215 -126 392 -231 392 -234 0 -3 -75 -50 -166 -104 l-167 -97 -236 139
c-130 76 -300 176 -378 221 l-143 83 0 86 c0 113 -4 124 -53 151 -23 13 -90
52 -149 87 l-108 64 0 42 0 42 -125 73 c-69 39 -130 72 -136 72 -7 0 -26 -9
-44 -20 l-33 -20 -56 32 c-41 24 -56 38 -56 54 0 25 -23 37 -52 28 -12 -3 -48
11 -101 42 -45 26 -84 48 -86 51 -3 2 10 19 28 37 l33 34 -16 48 c-18 52 -18
54 -12 54 3 0 182 -102 398 -226z m-1108 159 c-5 -44 -3 -50 25 -77 l31 -29
-81 -49 c-63 -38 -89 -48 -116 -46 -24 2 -38 -2 -43 -12 -4 -8 -11 -23 -16
-32 -5 -10 -151 -100 -324 -201 -173 -101 -336 -197 -362 -213 l-47 -28 -3
-110 -3 -110 -210 -123 c-115 -68 -285 -166 -377 -219 l-168 -96 -150 87 c-82
48 -157 93 -167 100 -18 13 -42 -2 407 260 605 353 1215 711 1500 881 58 34
106 62 108 63 1 1 0 -20 -4 -46z m423 -32 c-3 -9 -15 -41 -26 -71 -11 -30 -23
-68 -26 -85 -7 -29 -8 -28 -25 25 -10 30 -25 72 -34 92 l-16 37 37 20 c44 22
99 11 90 -18z m327 -182 c-2 -3 -24 -9 -50 -13 -25 -3 -69 -17 -96 -31 -28
-14 -52 -24 -54 -22 -2 2 16 33 41 69 l44 66 60 -31 c32 -18 58 -34 55 -38z
m-629 5 c29 -50 28 -62 -5 -44 -12 6 -49 17 -83 24 l-60 12 53 31 c30 18 57
30 61 27 4 -2 19 -25 34 -50z m-154 -59 c139 -26 212 -64 245 -127 29 -56 84
-219 72 -212 -7 5 -44 31 -83 59 -108 79 -185 124 -261 150 l-69 24 -5 60 c-3
42 -1 61 6 61 7 0 49 -7 95 -15z m887 -46 l-3 -60 -56 -19 c-72 -24 -160 -75
-281 -160 -54 -38 -98 -66 -98 -62 0 4 9 41 21 82 41 148 141 233 312 265 116
21 108 24 105 -46z m-1038 -50 c0 -21 -2 -39 -4 -39 -3 0 -20 9 -39 20 l-34
20 -114 -68 -114 -68 -3 -131 -3 -131 112 -63 c129 -72 115 -73 260 13 l90 53
-3 130 -3 130 -48 31 c-60 40 -64 44 -35 37 63 -14 215 -100 332 -187 78 -58
138 -96 153 -96 13 0 51 22 86 48 136 107 344 232 384 232 10 0 13 -34 13
-145 l0 -144 43 -29 c23 -16 99 -61 170 -101 70 -40 127 -74 127 -76 0 -6
-223 -128 -234 -128 -6 0 -83 41 -171 92 -193 111 -252 131 -385 131 -111 0
-211 -17 -338 -56 -96 -30 -118 -44 -108 -69 8 -21 32 -17 131 18 154 56 318
71 444 42 44 -11 113 -43 218 -103 84 -48 153 -89 153 -92 -1 -7 -191 -115
-199 -113 -4 1 -79 45 -168 97 -89 53 -164 96 -167 96 -3 0 -79 -43 -168 -96
-90 -53 -167 -97 -173 -97 -5 0 -125 67 -265 148 -140 81 -335 193 -432 249
-98 55 -178 103 -178 106 0 3 93 59 207 125 113 66 260 152 327 191 67 39 124
69 129 67 4 -2 7 -22 7 -44z m1136 37 c10 -8 17 -16 14 -18 -3 -2 -17 -12 -32
-21 l-28 -17 0 35 c0 38 13 44 46 21z m250 -57 c41 -23 74 -46 74 -50 0 -8
-158 -99 -172 -99 -17 0 -169 93 -166 102 6 17 152 97 171 93 10 -2 52 -23 93
-46z m-1325 -132 c-4 -4 -38 -26 -75 -47 l-67 -39 -69 42 c-39 23 -70 45 -70
49 0 4 32 25 71 46 l71 40 73 -42 c41 -22 70 -45 66 -49z m1114 -14 l85 -48 0
-112 0 -111 -82 49 c-44 27 -85 49 -90 49 -4 0 -8 50 -8 110 0 61 2 110 5 110
3 0 43 -21 90 -47z m325 -57 l0 -105 -86 -50 c-47 -28 -88 -51 -90 -51 -3 0
-3 48 -2 107 l3 108 80 47 c44 25 83 47 88 47 4 1 7 -46 7 -103z m-1679 -17
l69 -41 0 -85 0 -85 -57 32 c-92 52 -93 52 -93 142 0 43 3 78 6 78 3 0 37 -19
75 -41z m279 -42 c0 -68 -3 -84 -17 -93 -10 -6 -44 -25 -75 -43 l-58 -32 0 85
0 85 68 40 c37 22 70 40 75 41 4 0 7 -37 7 -83z m1551 24 c141 -83 146 -63
-51 -176 l-173 -99 -35 21 c-20 11 -37 24 -39 29 -1 5 42 35 97 67 l100 57 0
75 c0 41 4 75 8 75 5 0 47 -22 93 -49z m145 -506 c-2 -6 -74 -51 -160 -101
l-156 -89 0 -140 0 -141 -112 -66 c-62 -36 -134 -78 -161 -93 l-47 -27 2 338
3 337 105 63 c58 35 108 63 113 64 10 0 9 -154 -2 -182 -5 -13 -30 -37 -56
-53 -26 -17 -53 -41 -60 -55 -15 -29 -30 -209 -20 -239 6 -20 43 -30 46 -13 1
4 4 56 8 116 l6 110 55 42 c30 23 60 55 67 70 7 16 12 72 13 124 0 52 4 101 9
108 4 7 84 57 177 111 l169 98 3 -186 c1 -102 1 -190 -2 -196z m-2021 107
l400 -229 3 -168 c2 -122 -1 -171 -9 -176 -7 -4 -32 -10 -55 -14 -58 -8 -89 9
-161 92 -150 172 -147 170 -407 318 l-246 140 0 153 0 152 38 -19 c20 -11 217
-123 437 -249z m2459 -146 c132 -78 260 -153 284 -166 23 -13 42 -26 42 -29 0
-3 -107 -69 -238 -145 -130 -77 -322 -190 -427 -251 -104 -61 -336 -197 -515
-302 -179 -105 -437 -257 -575 -338 -137 -81 -254 -148 -260 -148 -5 0 -127
69 -270 153 -143 84 -361 212 -485 285 -124 73 -385 226 -580 340 -601 352
-660 387 -655 395 2 4 46 31 97 60 51 30 174 101 273 158 99 58 210 122 246
144 36 21 69 38 73 38 3 0 6 -107 6 -238 l0 -237 48 -29 c26 -16 198 -115 382
-221 184 -106 439 -252 565 -325 127 -72 247 -141 268 -152 l39 -19 251 144
c139 80 354 204 479 276 125 72 230 131 233 131 3 0 30 -16 60 -34 30 -19 71
-44 93 -55 l38 -20 165 95 c90 52 170 102 177 111 8 11 12 58 12 145 0 151 3
146 -122 218 l-78 45 0 93 0 94 66 -37 c37 -21 175 -101 308 -179z m-1543 10
l142 -84 -94 -55 c-52 -30 -117 -67 -144 -83 l-50 -27 -143 83 c-79 45 -142
84 -140 85 5 4 282 165 284 165 1 0 66 -38 145 -84z m-1154 -93 l225 -128 98
-111 c155 -175 171 -184 274 -167 70 12 57 17 256 -101 l125 -74 3 -142 c2
-124 1 -142 -13 -137 -15 6 -393 222 -790 452 -121 70 -264 152 -317 182 l-98
55 0 149 c0 82 3 149 6 149 3 0 107 -57 231 -127z m1571 -230 l-3 -336 -240
-139 c-132 -76 -252 -145 -267 -154 l-28 -15 0 145 0 144 116 67 c64 37 140
82 170 101 l54 35 0 188 0 188 93 56 c50 30 95 55 100 56 4 1 6 -151 5 -336z
m788 262 c35 -20 66 -39 69 -44 3 -5 -10 -18 -27 -29 -18 -10 -77 -45 -130
-76 l-98 -58 -75 43 c-41 24 -75 45 -75 48 1 7 251 150 264 151 5 0 37 -16 72
-35z m-1535 -143 c180 -104 160 -72 157 -254 l-3 -158 -142 86 -143 85 0 155
c0 84 3 154 8 154 4 0 59 -31 123 -68z m497 -89 l-3 -157 -138 -83 c-76 -46
-140 -83 -143 -83 -2 0 -4 72 -4 159 l0 159 138 80 c75 45 140 81 145 82 4 0
6 -71 5 -157z m1135 -74 c-9 -9 -253 -149 -259 -149 -3 0 -3 46 -2 102 l3 101
130 76 130 76 3 -99 c1 -55 -1 -103 -5 -107z m-335 69 c21 -11 22 -17 22 -115
0 -56 -3 -103 -7 -103 -5 0 -37 17 -73 38 l-65 38 -3 107 -3 108 53 -31 c29
-17 63 -36 76 -42z"/>
</g>
</svg>
