<?xml version="1.0" standalone="no"?>
<!DOCTYPE svg PUBLIC "-//W3C//DTD SVG 20010904//EN"
 "http://www.w3.org/TR/2001/REC-SVG-20010904/DTD/svg10.dtd">
<svg version="1.0" xmlns="http://www.w3.org/2000/svg"
 width="535.000000pt" height="467.000000pt" viewBox="0 0 535.000000 467.000000"
 preserveAspectRatio="xMidYMid meet">

<g transform="translate(0.000000,467.000000) scale(0.100000,-0.100000)"
fill="#000000" stroke="none">
<path d="M2570 3847 c-558 -322 -1774 -1034 -2120 -1244 l-115 -69 -3 -181 -2
-181 142 -83 c79 -45 217 -126 308 -179 91 -54 302 -177 470 -275 168 -98 375
-219 460 -270 85 -50 223 -131 305 -180 83 -48 248 -146 367 -216 119 -71 228
-134 242 -140 27 -13 51 0 696 381 146 86 402 237 570 335 309 181 676 398
940 554 l145 86 3 181 2 181 -327 193 c-181 106 -425 250 -543 320 -118 70
-282 165 -365 212 -82 47 -360 205 -617 352 -257 146 -471 266 -475 266 -4 0
-42 -20 -83 -43z m133 -21 c593 -336 1153 -657 1402 -803 121 -71 354 -208
517 -304 164 -95 298 -177 298 -181 0 -3 -98 -64 -217 -134 -120 -70 -299
-175 -398 -234 -99 -59 -427 -252 -730 -430 -302 -177 -633 -371 -733 -431
-101 -60 -189 -109 -195 -109 -5 0 -105 56 -221 124 -728 427 -1679 984 -1879
1099 -86 50 -157 94 -157 98 0 4 30 25 68 47 37 22 150 89 252 149 631 375
1329 784 1775 1040 72 41 134 79 140 84 15 14 33 11 78 -15z m2247 -1475 c0
-128 -2 -150 -16 -155 -9 -3 -129 -73 -268 -155 -265 -157 -1358 -799 -1758
-1033 -130 -76 -239 -138 -242 -138 -4 0 -5 66 -4 147 l3 148 60 36 c33 20
152 90 265 156 360 211 484 284 1055 620 308 182 632 374 720 426 88 53 166
96 173 96 9 1 12 -35 12 -148z m-4473 75 c60 -35 292 -171 518 -303 644 -377
1007 -589 1175 -688 85 -50 224 -131 307 -181 l153 -89 0 -147 c0 -82 -3 -148
-6 -148 -4 0 -86 47 -183 104 -771 453 -1202 706 -1526 896 -82 48 -241 141
-352 206 l-203 119 0 147 c0 82 2 148 5 148 3 0 53 -29 112 -64z"/>
<path d="M2549 3570 c-57 -33 -109 -60 -116 -60 -7 0 -23 -10 -37 -22 -14 -13
-294 -180 -623 -372 -928 -543 -977 -572 -980 -583 -3 -7 60 -50 139 -96 79
-46 251 -147 383 -224 532 -312 1165 -683 1238 -727 43 -25 84 -46 90 -46 13
0 57 25 362 205 110 64 344 202 520 305 176 103 410 240 520 305 110 65 258
152 330 194 71 42 131 83 133 91 2 15 -20 29 -443 276 -77 45 -243 142 -370
216 -273 161 -797 463 -863 498 -26 14 -77 42 -113 62 l-66 37 -104 -59z m91
-65 l0 -75 -35 -17 -34 -16 -45 39 c-24 21 -43 44 -42 49 2 8 140 93 154 95 1
0 2 -34 2 -75z m115 29 c36 -20 65 -37 65 -39 0 -2 -23 -22 -51 -45 -43 -37
-53 -41 -73 -32 -20 9 -23 18 -25 81 -1 43 2 71 8 71 6 0 40 -16 76 -36z m118
-110 l17 -46 -46 -51 c-48 -54 -126 -178 -146 -234 -7 -18 -16 -33 -21 -33
-15 0 -2 147 18 220 16 56 27 73 82 128 35 34 67 62 71 62 4 0 15 -21 25 -46z
m-372 -6 c31 -26 59 -61 75 -96 36 -76 66 -227 62 -315 l-3 -72 -34 90 c-44
119 -113 252 -156 303 -19 22 -35 47 -35 55 0 24 22 77 32 77 5 0 32 -19 59
-42z m804 -198 c557 -322 1155 -674 1155 -679 -1 -4 -58 -39 -128 -79 l-127
-74 -41 24 c-22 12 -151 88 -287 168 l-247 144 0 77 c0 77 0 78 -32 96 -202
118 -198 115 -198 149 0 31 -5 36 -100 89 -98 55 -100 56 -126 39 -25 -17 -28
-17 -70 7 -26 14 -44 31 -44 41 0 13 -8 18 -27 18 -27 0 -153 65 -153 79 0 4
9 16 21 27 20 18 21 41 3 88 -9 23 -5 21 401 -214z m-929 178 c-5 -24 -1 -37
15 -54 12 -12 18 -27 15 -33 -13 -21 -115 -71 -145 -71 -24 0 -31 -4 -31 -19
0 -14 -57 -52 -227 -152 -126 -72 -251 -147 -280 -165 l-52 -33 -3 -82 -3 -82
-282 -165 -283 -164 -125 73 c-69 40 -125 76 -125 80 0 3 107 68 238 144 130
76 284 166 342 200 58 34 276 162 485 285 209 122 398 233 420 246 22 13 42
23 44 24 2 0 1 -14 -3 -32z m303 -7 c16 -9 16 -14 -8 -87 l-25 -76 -17 49 c-9
28 -22 60 -28 71 -10 18 -8 23 16 36 34 18 39 19 62 7z m249 -162 c-7 -5 -22
-9 -33 -9 -11 0 -40 -9 -64 -20 -24 -11 -45 -19 -46 -18 -2 2 12 26 31 55 l33
52 46 -26 c34 -19 43 -28 33 -34z m-462 10 c14 -22 24 -43 21 -45 -2 -2 -20 3
-40 11 -20 8 -45 15 -56 15 -33 0 -33 17 1 38 18 11 36 21 40 21 4 1 19 -17
34 -40z m-94 -49 c40 -7 86 -24 112 -40 38 -25 48 -38 75 -109 43 -111 41
-118 -18 -73 -76 57 -158 104 -215 123 l-51 18 -3 51 c-3 46 -1 51 15 47 10
-3 48 -11 85 -17z m648 -30 c0 -32 -5 -52 -12 -54 -67 -19 -127 -49 -214 -107
-56 -38 -104 -69 -107 -69 -3 0 2 27 10 60 18 70 73 139 136 171 31 16 124 41
180 48 4 1 7 -22 7 -49z m-780 -47 c0 -27 -2 -27 -38 -9 -25 12 -32 10 -112
-39 l-85 -51 -3 -92 -3 -92 44 -28 c24 -15 64 -38 89 -52 l45 -23 79 45 c43
25 82 52 87 60 6 8 7 52 2 102 -7 86 -8 88 -41 108 -40 23 -45 42 -9 28 70
-27 156 -77 240 -140 51 -38 100 -70 108 -70 9 0 62 33 119 74 98 70 212 136
237 136 7 0 11 -35 11 -109 l0 -109 48 -29 c26 -17 84 -51 130 -78 46 -26 81
-50 78 -52 -3 -3 -43 -27 -90 -53 l-86 -48 -122 70 c-168 96 -183 101 -308
101 -87 -1 -123 -6 -209 -32 -57 -16 -108 -36 -112 -43 -15 -23 8 -30 47 -13
119 50 324 70 407 41 53 -19 257 -138 252 -146 -3 -4 -36 -26 -74 -49 l-69
-41 -127 75 c-147 85 -113 87 -283 -14 l-103 -60 -237 136 c-397 228 -424 245
-416 253 9 9 218 133 389 231 102 58 115 59 115 12z m850 37 c13 -9 12 -12 -4
-25 -28 -21 -36 -19 -36 10 0 26 15 32 40 15z m250 -80 c0 -3 -30 -23 -66 -44
l-66 -39 -54 29 c-62 34 -89 52 -83 57 2 2 33 20 69 40 l64 36 68 -37 c37 -20
68 -39 68 -42z m-1062 -53 c14 -11 7 -17 -64 -56 l-40 -23 -58 35 c-65 40 -68
29 23 85 l35 21 45 -26 c26 -15 52 -31 59 -36z m847 -23 l65 -36 0 -85 c0 -46
-3 -83 -8 -81 -4 2 -35 19 -70 38 l-62 35 0 82 c0 46 2 83 5 83 2 0 34 -16 70
-36z m245 -38 c0 -52 -4 -77 -15 -86 -16 -13 -125 -80 -131 -80 -2 0 -4 37 -4
83 l0 83 63 36 c34 21 68 37 75 38 8 0 12 -21 12 -74z m-1210 -113 c0 -35 -3
-63 -6 -63 -4 0 -31 14 -60 31 l-54 30 0 70 0 69 60 -37 60 -38 0 -62z m150
63 l0 -65 -54 -30 c-29 -17 -56 -31 -60 -31 -3 0 -6 29 -6 64 l0 64 53 31 c28
17 55 31 60 31 4 0 7 -29 7 -64z m1183 14 c42 -25 77 -47 77 -50 0 -3 -59 -38
-131 -79 -125 -71 -133 -74 -157 -60 -14 8 -27 19 -29 24 -2 6 31 30 72 54
l75 45 0 59 c0 32 4 57 8 55 4 -1 43 -23 85 -48z m89 -382 c-5 -5 -58 -37
-118 -72 l-109 -63 -5 -108 -5 -109 -115 -67 c-63 -37 -118 -65 -123 -62 -8 5
-9 419 0 474 4 28 12 40 37 52 17 9 55 30 84 47 l52 32 0 -76 0 -76 -42 -31
c-24 -17 -46 -36 -50 -42 -12 -23 -19 -172 -8 -187 18 -27 30 8 30 92 l0 76
49 35 c53 38 56 47 64 187 l2 45 130 75 130 76 3 -145 c1 -79 -1 -148 -6 -153z
m-1541 105 l329 -188 0 -132 0 -132 -35 -7 c-56 -10 -80 2 -139 69 -30 34 -67
77 -83 95 -16 18 -111 79 -218 140 l-190 109 -3 116 c-1 65 0 117 4 117 3 0
154 -84 335 -187z m1806 -85 c115 -67 232 -135 261 -151 28 -16 52 -32 52 -37
0 -4 -190 -119 -422 -256 -233 -136 -571 -335 -753 -442 -181 -107 -335 -195
-340 -195 -6 0 -98 51 -205 115 -107 63 -325 191 -485 285 -159 93 -396 232
-525 308 -129 76 -247 145 -262 154 -16 9 -28 18 -28 21 0 3 44 30 98 60 53
30 168 96 255 147 87 51 162 93 167 93 6 0 10 -69 10 -174 0 -127 3 -176 13
-184 6 -5 57 -36 112 -67 560 -323 846 -485 854 -485 6 0 74 37 153 83 374
218 569 328 576 325 4 -2 37 -20 74 -41 l67 -38 128 74 128 75 3 110 3 110
-73 44 -73 44 -3 72 c-2 40 0 72 2 72 3 0 99 -55 213 -122z m-1054 -53 c37
-22 67 -42 67 -45 0 -6 -209 -126 -217 -124 -12 2 -213 120 -213 124 0 3 48
34 107 68 l107 61 41 -22 c22 -13 70 -41 108 -62z m-902 -51 c165 -94 173
-100 251 -189 44 -51 91 -98 104 -105 14 -8 44 -11 81 -7 57 5 59 4 181 -67
l122 -71 0 -109 c0 -82 -3 -107 -12 -103 -7 2 -98 54 -203 114 -104 60 -306
176 -447 257 l-258 148 0 83 c0 45 -3 97 -6 114 -4 20 -3 31 5 31 6 0 88 -43
182 -96z m1175 -420 c-2 -6 -58 -42 -123 -79 -65 -38 -151 -88 -191 -112 -40
-23 -77 -43 -82 -43 -6 0 -10 45 -10 108 l1 107 127 75 127 75 3 145 3 145 72
41 72 41 3 -246 c1 -135 0 -251 -2 -257z m600 444 c30 -18 54 -35 54 -38 0 -3
-45 -31 -100 -63 l-99 -59 -56 32 c-31 18 -55 36 -53 41 3 8 185 118 196 119
2 0 28 -15 58 -32z m-1101 -138 l60 -37 3 -121 c1 -67 0 -122 -4 -122 -3 0
-53 28 -110 62 l-104 63 0 123 0 123 48 -28 c26 -15 74 -43 107 -63z m317 -22
c2 -57 2 -110 0 -120 -3 -13 -198 -138 -216 -138 -3 0 -6 54 -6 120 l0 119
102 61 c56 33 105 60 109 60 4 0 9 -46 11 -102z m868 14 c0 -37 -4 -72 -8 -78
-9 -14 -184 -114 -199 -114 -16 0 -17 136 -1 150 27 23 193 117 201 113 4 -2
7 -34 7 -71z m-303 -9 l53 -28 0 -82 c0 -46 -2 -83 -5 -83 -3 0 -30 16 -60 35
l-55 35 0 75 c0 41 3 75 7 75 4 0 31 -12 60 -27z"/>
<path d="M422 1919 c-45 -25 -52 -34 -52 -59 0 -30 0 -30 -24 -15 -23 15 -28
15 -75 -10 -44 -22 -51 -30 -51 -54 0 -28 -1 -29 -28 -19 -24 9 -36 7 -73 -13
l-44 -24 -3 -96 c-2 -81 0 -98 15 -111 34 -29 470 -298 483 -298 7 0 44 18 83
40 l69 40 117 -74 c64 -40 213 -136 331 -211 118 -76 242 -155 276 -175 l60
-37 92 55 93 55 -3 101 -3 100 -352 201 -352 200 -1 60 c0 33 -4 65 -8 71 -6
9 -282 177 -453 276 l-45 27 -52 -30z m318 -166 c96 -57 175 -108 175 -113 0
-5 -16 -19 -35 -32 -19 -13 -35 -30 -35 -38 0 -9 156 -104 390 -238 215 -122
391 -226 393 -230 1 -4 -26 -23 -61 -42 l-63 -34 -65 39 c-35 22 -199 124
-363 228 -165 104 -312 195 -327 202 -25 13 -32 12 -105 -27 -70 -37 -80 -39
-99 -27 -12 8 -110 69 -218 137 -108 68 -197 126 -197 130 0 4 8 12 19 19 15
10 41 -2 169 -79 l150 -89 42 21 c23 12 40 26 37 33 -2 7 -61 49 -131 93 -70
45 -129 84 -132 87 -3 3 4 11 16 17 18 10 39 0 167 -76 l146 -87 43 22 c24 11
44 25 44 30 0 6 -61 47 -135 93 -74 46 -135 86 -135 89 0 3 10 11 23 16 25 12
9 20 287 -144z m-210 20 c98 -60 122 -84 87 -83 -23 1 -202 117 -205 133 -2 9
0 17 3 17 4 0 56 -30 115 -67z m-142 -89 c95 -61 120 -84 90 -84 -26 0 -223
126 -226 144 -5 26 12 18 136 -60z m-48 -154 l210 -132 0 -64 c0 -35 -3 -64
-7 -63 -5 0 -105 62 -223 137 l-215 137 -3 64 c-3 54 -1 63 12 58 9 -4 110
-65 226 -137z m600 40 c0 -28 -1 -29 -25 -18 -29 13 -31 23 -7 37 27 16 32 13
32 -19z m-230 -174 l0 -65 -54 -30 c-29 -17 -56 -31 -60 -31 -3 0 -6 29 -6 64
l0 64 53 31 c28 17 55 31 60 31 4 0 7 -29 7 -64z m230 -58 c102 -65 266 -168
365 -231 l180 -113 3 -67 c2 -37 -1 -67 -5 -67 -4 0 -172 105 -373 233 l-365
233 -3 68 c-2 37 1 66 5 64 5 -1 92 -56 193 -120z m713 -335 c-2 -32 -6 -63
-8 -69 -3 -11 -105 -74 -119 -74 -3 0 -6 29 -6 64 l0 64 58 36 c31 19 62 36
69 36 8 0 10 -17 6 -57z"/>
<path d="M4845 1920 c-112 -13 -263 -77 -333 -143 -41 -38 -75 -106 -76 -152
-1 -28 -7 -47 -17 -53 -8 -5 -190 -110 -405 -232 -214 -123 -392 -228 -396
-234 -4 -6 -8 -49 -8 -96 0 -47 4 -90 8 -96 4 -5 45 -33 92 -61 70 -43 88 -49
105 -41 25 13 474 302 645 414 124 82 126 82 170 74 25 -5 70 -9 100 -9 181
-1 406 111 463 231 23 48 24 245 2 288 -44 85 -185 129 -350 110z m203 -45
c62 -19 118 -65 127 -105 12 -55 -48 -136 -145 -195 -114 -69 -269 -99 -392
-76 l-64 13 -388 -246 -389 -246 -41 26 c-22 14 -51 30 -63 36 -13 6 -23 14
-23 17 0 3 157 95 348 203 191 109 372 213 402 231 l54 33 -3 49 c-2 42 3 57
28 92 57 78 166 142 296 172 64 15 196 12 253 -4z m112 -340 c-59 -121 -300
-228 -473 -210 -88 9 -87 9 -87 79 l0 63 103 -5 c167 -7 314 43 425 144 l47
42 3 -35 c2 -20 -5 -52 -18 -78z m-617 -213 c-38 -28 -711 -462 -717 -462 -3
0 -6 30 -6 68 l0 67 167 105 c92 58 258 162 368 232 l200 128 3 -62 c3 -51 0
-65 -15 -76z m-823 -295 l55 -33 5 -67 c3 -37 1 -67 -3 -67 -5 0 -35 15 -68
33 l-59 32 0 68 c0 37 3 67 8 67 4 0 32 -15 62 -33z"/>
</g>
</svg>
